<svg width="308" height="50" viewBox="0 0 308 50" fill="none" xmlns="http://www.w3.org/2000/svg">
<g clip-path="url(#clip0_19_559)">
<path d="M45.7106 25H25L24.0234 34.2355L25 45.7108C30.7191 51.4298 39.9916 51.4298 45.7106 45.7108C51.4298 39.9916 51.4298 30.7191 45.7106 25Z" fill="#FFDD33"/>
<path d="M24.9999 25C30.7189 30.719 39.9915 30.719 45.7105 25C51.4296 19.281 51.4296 10.0084 45.7105 4.28936C39.9914 -1.42968 30.7189 -1.42968 24.9999 4.28936V25Z" fill="#29CCCC"/>
<path d="M25 4.28932L24.0234 14.6447L25 25C30.719 19.2808 30.719 10.0085 25 4.28932Z" fill="#282866"/>
<path d="M25.0004 4.28976C19.2814 -1.42928 10.0088 -1.42928 4.28977 4.28976C-1.42927 10.0089 -1.42927 19.2814 4.28977 25.0004H25.0004V4.28976Z" fill="#282866"/>
<path d="M24.9999 25.0001C19.2809 19.281 10.0083 19.281 4.28928 25.0001C-1.42976 30.7191 -1.42976 39.9916 4.28928 45.7107C10.0084 51.4297 19.2809 51.4297 24.9999 45.7107L24.0234 35.3553L24.9999 25.0001Z" fill="#FF8080"/>
<path d="M25 25C19.2809 30.7191 19.2809 39.9916 25 45.7107V25Z" fill="#FFEE99"/>
</g>
<path d="M59.9865 14.9933V16.5133C59.9865 24.5933 60.4665 32.9933 67.6265 39.8333H57.9865V11.0333H68.6665L81.1865 35.8733V34.3533C81.1865 26.2733 80.7065 17.8733 73.5465 11.0333H83.1865V39.8333H72.5465L59.9865 14.9933ZM107.153 28.3933C107.393 29.3933 107.513 30.3933 107.513 31.3933C107.513 35.9933 102.833 40.2333 96.5534 40.2333C88.3934 40.2333 85.1134 34.4733 85.1134 28.4333C85.1134 22.2333 88.5934 15.4333 97.0334 15.4333C102.953 15.4333 105.913 17.7133 105.913 20.2733C105.913 24.1933 99.0334 28.0733 95.5934 29.7533C96.6734 31.2733 98.0734 32.3133 99.8734 32.3133C102.593 32.3133 105.473 30.9133 107.153 28.3933ZM94.7534 28.3533C96.0734 26.6733 98.0334 23.5933 98.0334 21.0333C98.0334 18.9533 96.7134 17.3933 94.9534 17.3933C93.5934 17.3933 93.0734 18.3533 93.0734 20.8733C93.0734 23.1133 93.5934 26.0333 94.7534 28.3533ZM107.832 15.8333H118.512L123.472 23.8733C123.872 22.3933 124.032 21.1533 124.032 19.9933C123.992 18.6333 123.512 17.3533 122.712 15.8333H132.392L124.632 25.7533L133.352 39.8333H122.672L117.512 31.5133C116.632 33.2733 116.312 34.6333 116.312 35.8733V36.0733C116.352 37.3533 116.752 38.4733 117.272 39.8333H107.632L116.592 29.9933L107.832 15.8333ZM156.761 21.4333V35.0333C156.761 37.2333 157.041 38.4333 157.721 39.8333H149.441C148.841 39.1133 148.241 38.2333 147.881 37.2733C146.801 39.0733 144.921 40.2333 142.321 40.2333C136.441 40.2333 133.041 36.2733 133.041 32.6733C133.041 25.6333 147.361 25.2733 147.361 19.6333C147.361 18.8333 147.041 17.3533 145.841 17.3533C144.041 17.3533 140.841 20.6333 140.441 24.2733C136.241 23.5933 134.161 21.7133 134.161 19.9133C134.161 17.6733 138.081 15.4333 144.681 15.4333C153.041 15.4333 156.761 18.8333 156.761 21.4333ZM147.521 33.8733V23.6733C144.721 26.2333 142.241 29.8733 142.241 32.5933C142.241 34.7133 143.281 37.1133 144.441 37.1133C146.441 37.1133 147.121 35.9533 147.521 33.8733ZM167.107 13.7133C165.907 18.7133 164.747 24.3933 164.747 29.4333C164.747 29.7133 164.787 30.0333 164.787 30.3133H172.027L167.107 13.7133ZM166.307 11.0333H175.987L184.547 39.8333H174.867L172.507 31.9133H164.867C165.187 35.0333 166.107 37.7933 168.067 39.8333H157.587L166.307 11.0333ZM184.801 27.3933C184.801 19.6333 189.441 15.4333 194.081 15.4333C196.521 15.4333 199.001 16.6333 200.721 19.1133V11.0333H201.561C204.561 11.0333 207.321 10.7533 209.921 10.2333V39.8333H201.521L200.961 36.9133C199.441 39.1933 197.241 40.2333 195.001 40.2333C190.081 40.2333 184.801 35.2733 184.801 27.3933ZM197.281 37.6733C199.641 37.6733 200.721 32.1133 200.721 26.9133C200.721 22.5933 199.841 18.5533 197.801 18.5533C195.481 18.5533 194.081 23.7933 194.081 28.7933C194.081 33.3533 195.201 37.6733 197.281 37.6733ZM212.475 16.2333H213.315C216.315 16.2333 219.075 15.9533 221.675 15.4333V19.7133C223.555 16.9533 226.275 15.4333 228.795 15.4333C231.395 15.4333 233.755 17.0733 234.755 20.5533C236.635 17.2733 239.635 15.4333 242.395 15.4333C245.835 15.4333 248.875 18.2733 248.875 24.5933V39.8333H239.595V25.9933C239.595 21.9133 238.595 19.9533 237.555 19.9533C236.435 19.9533 235.275 22.3133 235.275 26.9133V39.8333H225.995V25.9933C225.995 21.9133 224.995 19.9533 223.955 19.9533C222.835 19.9533 221.675 22.3133 221.675 26.9133V39.8333H212.475V16.2333ZM251.386 16.2333H252.386C255.346 16.2333 258.066 15.9533 260.626 15.4333V39.8333H251.386V16.2333ZM250.626 10.8733C250.626 8.99326 253.026 7.47326 255.986 7.47326C258.946 7.47326 261.386 8.99326 261.386 10.8733C261.386 12.7533 258.946 14.2733 255.986 14.2733C253.026 14.2733 250.626 12.7533 250.626 10.8733ZM263.295 16.2333H264.135C267.135 16.2333 269.895 15.9533 272.495 15.4333V19.7933C274.575 16.8733 277.655 15.4333 280.575 15.4333C284.695 15.4333 288.495 18.4333 288.495 24.5933V39.8333H279.215V25.9933C279.215 21.4733 277.615 19.1133 275.975 19.1133C274.255 19.1133 272.495 21.6733 272.495 26.9133V39.8333H263.295V16.2333Z" fill="white"/>
<defs>
<clipPath id="clip0_19_559">
<rect width="50" height="50" fill="white"/>
</clipPath>
</defs>
</svg>
