<svg width="332" height="54" viewBox="0 0 332 54" fill="none" xmlns="http://www.w3.org/2000/svg">
<g clip-path="url(#clip0_19_538)">
<path d="M49.5283 26.9511H27.2012L26.1484 36.9074L27.2012 49.2783C33.3667 55.4437 43.3629 55.4437 49.5283 49.2783C55.6938 43.1128 55.6938 33.1165 49.5283 26.9511Z" fill="#FFDD33"/>
<path d="M27.2012 26.9512C33.3666 33.1166 43.3628 33.1166 49.5283 26.9512C55.6937 20.7858 55.6937 10.7895 49.5283 4.62409C43.3627 -1.54132 33.3666 -1.54132 27.2012 4.62409V26.9512Z" fill="#29CCCC"/>
<path d="M27.2012 4.62405L26.1484 15.7877L27.2012 26.9511C33.3666 20.7856 33.3666 10.7896 27.2012 4.62405Z" fill="#282866"/>
<path d="M27.2014 4.62427C21.036 -1.54114 11.0397 -1.54114 4.8743 4.62427C-1.29111 10.7898 -1.29111 20.7859 4.8743 26.9514H27.2014V4.62427Z" fill="#4A4080"/>
<path d="M27.2013 26.9512C21.0359 20.7858 11.0396 20.7858 4.87418 26.9512C-1.29123 33.1166 -1.29123 43.1129 4.87418 49.2783C11.0397 55.4437 21.0359 55.4437 27.2013 49.2783L26.1485 38.1147L27.2013 26.9512Z" fill="#FF8080"/>
<path d="M27.2012 26.9511C21.0358 33.1165 21.0358 43.1128 27.2012 49.2782V26.9511Z" fill="#FFEE99"/>
</g>
<path d="M64.9185 16.5098V18.1485C64.9185 26.8591 65.4359 35.9147 73.1548 43.2886H62.7624V12.2408H74.2759L87.7731 39.0195V37.3809C87.7731 28.6702 87.2557 19.6146 79.5368 12.2408H89.9292V43.2886H78.4588L64.9185 16.5098ZM115.767 30.9557C116.025 32.0337 116.155 33.1118 116.155 34.1898C116.155 39.1489 111.11 43.7198 104.339 43.7198C95.5425 43.7198 92.0065 37.5102 92.0065 30.9988C92.0065 24.3149 95.7581 16.9842 104.857 16.9842C111.239 16.9842 114.43 19.4421 114.43 22.2019C114.43 26.4279 107.013 30.6107 103.304 32.4218C104.469 34.0605 105.978 35.1816 107.918 35.1816C110.851 35.1816 113.956 33.6724 115.767 30.9557ZM102.399 30.9126C103.822 29.1014 105.935 25.7811 105.935 23.0213C105.935 20.7789 104.512 19.0972 102.614 19.0972C101.148 19.0972 100.588 20.1321 100.588 22.8488C100.588 25.2636 101.148 28.4115 102.399 30.9126ZM116.498 17.4154H128.012L133.359 26.0829C133.79 24.4874 133.962 23.1506 133.962 21.9001C133.919 20.4339 133.402 19.054 132.539 17.4154H142.975L134.609 28.1096L144.01 43.2886H132.496L126.934 34.3192C125.985 36.2166 125.64 37.6827 125.64 39.0195V39.2351C125.683 40.615 126.114 41.8224 126.675 43.2886H116.282L125.942 32.6806L116.498 17.4154ZM169.246 23.4525V38.1139C169.246 40.4856 169.548 41.7793 170.281 43.2886H161.355C160.708 42.5124 160.061 41.5637 159.673 40.5288C158.509 42.4693 156.482 43.7198 153.679 43.7198C147.34 43.7198 143.675 39.4507 143.675 35.5697C143.675 27.9803 159.113 27.5922 159.113 21.512C159.113 20.6495 158.768 19.054 157.474 19.054C155.534 19.054 152.084 22.59 151.653 26.5141C147.125 25.7811 144.882 23.7543 144.882 21.8138C144.882 19.399 149.108 16.9842 156.223 16.9842C165.236 16.9842 169.246 20.6495 169.246 23.4525ZM159.285 36.8634V25.8673C156.267 28.6271 153.593 32.5512 153.593 35.4835C153.593 37.769 154.714 40.3563 155.965 40.3563C158.121 40.3563 158.854 39.1057 159.285 36.8634ZM180.4 15.1299C179.106 20.5202 177.856 26.6435 177.856 32.0769C177.856 32.3787 177.899 32.7237 177.899 33.0255H185.704L180.4 15.1299ZM179.537 12.2408H189.973L199.201 43.2886H188.765L186.221 34.7504H177.985C178.33 38.1139 179.322 41.0894 181.435 43.2886H170.137L179.537 12.2408ZM199.474 29.8776C199.474 21.512 204.477 16.9842 209.479 16.9842C212.109 16.9842 214.783 18.2778 216.637 20.9514V12.2408H217.543C220.777 12.2408 223.752 11.9389 226.555 11.3783V43.2886H217.499L216.896 40.1407C215.257 42.5986 212.885 43.7198 210.471 43.7198C205.167 43.7198 199.474 38.3727 199.474 29.8776ZM212.929 40.96C215.473 40.96 216.637 34.966 216.637 29.3602C216.637 24.703 215.688 20.3477 213.489 20.3477C210.988 20.3477 209.479 25.9967 209.479 31.3869C209.479 36.3028 210.686 40.96 212.929 40.96ZM229.308 17.8466H230.214C233.448 17.8466 236.424 17.5448 239.227 16.9842V21.5982C241.253 18.6228 244.186 16.9842 246.902 16.9842C249.705 16.9842 252.249 18.7522 253.327 22.5038C255.354 18.9678 258.588 16.9842 261.564 16.9842C265.272 16.9842 268.549 20.0458 268.549 26.8591V43.2886H258.545V28.3684C258.545 23.9699 257.467 21.857 256.346 21.857C255.139 21.857 253.888 24.4012 253.888 29.3602V43.2886H243.884V28.3684C243.884 23.9699 242.806 21.857 241.684 21.857C240.477 21.857 239.227 24.4012 239.227 29.3602V43.2886H229.308V17.8466ZM271.256 17.8466H272.334C275.525 17.8466 278.458 17.5448 281.218 16.9842V43.2886H271.256V17.8466ZM270.437 12.0683C270.437 10.0415 273.024 8.40291 276.215 8.40291C279.406 8.40291 282.037 10.0415 282.037 12.0683C282.037 14.095 279.406 15.7336 276.215 15.7336C273.024 15.7336 270.437 14.095 270.437 12.0683ZM284.095 17.8466H285.001C288.235 17.8466 291.21 17.5448 294.013 16.9842V21.6845C296.256 18.5366 299.576 16.9842 302.724 16.9842C307.166 16.9842 311.262 20.2183 311.262 26.8591V43.2886H301.258V28.3684C301.258 23.4956 299.533 20.9514 297.765 20.9514C295.911 20.9514 294.013 23.7112 294.013 29.3602V43.2886H284.095V17.8466Z" fill="#4A4080"/>
<defs>
<clipPath id="clip0_19_538">
<rect width="53.9024" height="53.9025" fill="white" transform="translate(0.25 -4.57764e-05)"/>
</clipPath>
</defs>
</svg>
